<?xml version="1.0" standalone="no"?>
<!DOCTYPE svg PUBLIC "-//W3C//DTD SVG 20010904//EN"
 "http://www.w3.org/TR/2001/REC-SVG-20010904/DTD/svg10.dtd">
<svg version="1.0" xmlns="http://www.w3.org/2000/svg"
 width="160.000000pt" height="160.000000pt" viewBox="0 0 160.000000 160.000000"
 preserveAspectRatio="xMidYMid meet">
<metadata>
Created by potrace 1.14, written by Peter Selinger 2001-2017
</metadata>
<g transform="translate(0.000000,160.000000) scale(0.100000,-0.100000)"
fill="#000000" stroke="none">
<path d="M1060 1575 c-13 -7 -27 -21 -30 -31 -6 -17 -19 -19 -113 -20 -235 -2
-433 -106 -513 -269 -32 -66 -44 -153 -23 -166 22 -13 79 1 111 28 11 10 18
11 23 4 3 -6 4 -11 0 -11 -3 0 1 -13 10 -30 21 -41 68 -48 173 -26 l82 17 28
-26 c15 -14 45 -38 68 -52 41 -26 41 -27 32 -67 -5 -23 -12 -52 -14 -66 -3
-14 -11 -56 -19 -95 -8 -38 -16 -81 -18 -95 -3 -14 -8 -42 -12 -62 l-7 -38
-67 -1 c-173 -2 -325 -41 -389 -101 -12 -12 -28 -23 -35 -24 -88 -14 -230 -68
-283 -109 -131 -100 -1 -221 301 -278 120 -23 141 -26 255 -33 477 -32 930 66
966 210 9 36 -22 84 -74 116 -26 16 -70 47 -98 69 -28 22 -76 52 -106 66 -62
28 -191 64 -258 70 -25 3 -54 7 -65 9 -11 3 -23 5 -26 5 -8 1 -5 33 5 49 4 6
5 12 3 12 -2 0 10 71 28 157 31 156 32 158 61 166 16 5 48 14 72 21 45 14 53
11 116 -46 23 -21 100 -58 120 -58 8 0 28 11 44 25 32 27 42 31 42 16 0 -14
41 -56 66 -69 17 -9 24 -8 37 6 32 36 42 146 22 237 -33 151 -201 322 -383
389 -49 18 -57 24 -54 44 6 44 -40 78 -78 57z"/>
</g>
</svg>
